HIERARCHY
ROOT Hips
{
	OFFSET 0.000000 0.000000 0.000000
	CHANNELS 6 Xposition Yposition Zposition Zrotation Yrotation Xrotation 
	JOINT LHipJoint
	{
		OFFSET 0.000000 0.000000 0.000000
		CHANNELS 3 Zrotation Yrotation Xrotation
		JOINT LeftUpLeg
		{
			OFFSET 1.363060 -1.794630 0.839290
			CHANNELS 3 Zrotation Yrotation Xrotation
			JOINT LeftLeg
			{
				OFFSET 2.448110 -6.726130 0.000000
				CHANNELS 3 Zrotation Yrotation Xrotation
				JOINT LeftFoot
				{
					OFFSET 2.562200 -7.039590 0.000000
					CHANNELS 3 Zrotation Yrotation Xrotation
					JOINT LeftToeBase
					{
						OFFSET 0.157640 -0.433110 2.322550
						CHANNELS 3 Zrotation Yrotation Xrotation
						End Site
						{
							OFFSET 0.000000 0.000000 0.000000
						}
					}
				}
			}
		}
	}
	JOINT RHipJoint
	{
		OFFSET 0.000000 0.000000 0.000000
		CHANNELS 3 Zrotation Yrotation Xrotation
		JOINT RightUpLeg
		{
			OFFSET -1.305520 -1.794630 0.839290
			CHANNELS 3 Zrotation Yrotation Xrotation
			JOINT RightLeg
			{
				OFFSET -2.542530 -6.985550 0.000000
				CHANNELS 3 Zrotation Yrotation Xrotation
				JOINT RightFoot
				{
					OFFSET -2.568260 -7.056230 0.000000
					CHANNELS 3 Zrotation Yrotation Xrotation
					JOINT RightToeBase
					{
						OFFSET -0.164730 -0.452590 2.363150
						CHANNELS 3 Zrotation Yrotation Xrotation
						End Site
						{
							OFFSET 0.000000 0.000000 0.000000
						}
					}
				}
			}
		}
	}
}
MOTION
Frames: 28
Frame Time: 0.008333
2.582179 15.736445 -1.444251 71.271582 -76.857126 -19.560100 -7.656743 0.126229 10.173229 6.066622 -22.312996 -132.011413 -9.055108 -1.460285 5.564196 -1.347964 -2.505563 6.775867 0.953400 -0.000000 -48.991000 8.174997 4.243971 -3.519365 7.862902 -2.160903 -81.892510 1.899553 -5.779077 56.686973 -3.193189 -6.428766 -25.549059 2.026200 -0.000000 -41.625301
2.592292 15.702677 -1.460403 72.096984 -76.645745 -20.264926 -7.615066 0.099414 10.005559 5.740029 -22.427810 -131.284009 -8.950343 -1.222447 6.073794 -1.590339 -3.113258 8.322424 0.702800 -0.000000 -48.813500 8.195522 4.364158 -3.490985 7.451202 -2.174411 -82.370978 1.803688 -5.838873 57.355435 -3.234394 -6.557264 -25.855916 2.097900 0.000000 -41.286100
2.599711 15.672733 -1.475848 72.927587 -76.432746 -20.991203 -7.557235 0.084428 9.833075 5.268931 -22.622516 -130.329422 -8.847044 -1.039038 6.484685 -1.763359 -3.564233 9.586497 0.488600 0.000000 -48.316100 8.217678 4.471170 -3.437543 7.018163 -2.165809 -82.794689 1.706059 -5.881018 57.944131 -3.281827 -6.717233 -26.129897 2.170500 -0.000000 -40.984300
2.604164 15.646494 -1.489604 73.722064 -76.226855 -21.688654 -7.491263 0.082468 9.667243 4.701847 -22.876108 -129.208754 -8.737442 -0.899165 6.860871 -1.852847 -3.779637 10.496910 0.363500 0.000000 -47.752399 8.239270 4.558446 -3.360496 6.588125 -2.134649 -83.176231 1.610613 -5.908180 58.451488 -3.332443 -6.895268 -26.364219 2.240699 0.000000 -40.742100
2.605856 15.624022 -1.501289 74.481767 -76.032157 -22.359641 -7.422613 0.095738 9.509442 4.061736 -23.172380 -127.966706 -8.614331 -0.783730 7.283843 -1.855407 -3.717836 11.029945 0.360400 -0.000000 -47.289200 8.260417 4.625879 -3.262685 6.169971 -2.086945 -83.518720 1.519760 -5.922626 58.880964 -3.383404 -7.077737 -26.562197 2.306200 -0.000001 -40.524000
2.604597 15.604938 -1.509784 75.146875 -75.860782 -22.940063 -7.359911 0.120934 9.367360 3.403520 -23.483924 -126.668998 -8.463760 -0.670681 7.837628 -1.773535 -3.365304 11.215755 0.490200 -0.000000 -47.039400 8.278546 4.665656 -3.146855 5.797746 -2.023284 -83.832535 1.438006 -5.928116 59.232439 -3.431043 -7.249426 -26.714020 2.362400 -0.000000 -40.408500
2.600499 15.589092 -1.514818 75.715888 -75.718903 -23.431315 -7.306951 0.156710 9.237193 2.746841 -23.792913 -125.351361 -8.275853 -0.538548 8.596856 -1.615518 -2.746322 11.113989 0.738200 -0.000000 -47.011599 8.293949 4.677648 -3.016630 5.484064 -1.949133 -84.116533 1.367643 -5.927186 59.510861 -3.472787 -7.398209 -26.823105 2.407200 0.000000 -40.385600
2.593830 15.576268 -1.516145 76.172060 -75.613218 -23.823194 -7.266170 0.199298 9.115214 2.116975 -24.080261 -124.048089 -8.040458 -0.370396 9.615245 -1.393019 -1.905992 10.811737 1.075300 0.000000 -47.157100 8.306478 4.661175 -2.875166 5.243590 -1.867704 -84.370396 1.310879 -5.922353 59.721216 -3.506521 -7.513650 -26.893341 2.439200 0.000000 -40.439500
2.584963 15.566411 -1.513978 76.529615 -75.547644 -24.141388 -7.237123 0.246212 8.986924 1.500678 -24.336699 -122.767828 -7.754158 -0.149621 10.943930 -1.125043 -0.924193 10.395623 1.458300 -0.000000 -47.374301 8.317308 4.618909 -2.726187 5.079223 -1.782896 -84.580935 1.268146 -5.914521 59.868284 -3.531073 -7.591090 -26.929652 2.458100 -0.000000 -40.572600
2.574182 15.559344 -1.508482 76.785726 -75.525125 -24.390439 -7.218199 0.292052 8.843261 0.903408 -24.546908 -121.512772 -7.412405 0.128139 12.590797 -0.830670 0.128529 9.960124 1.852300 0.000000 -47.557800 8.327115 4.552784 -2.571780 4.994653 -1.695920 -84.742913 1.239759 -5.904738 59.957477 -3.546166 -7.628551 -26.938017 2.464800 -0.000000 -40.765600
2.561711 15.554880 -1.500091 76.950710 -75.545368 -24.585076 -7.206452 0.332098 8.673968 0.319239 -24.701023 -120.277168 -7.017101 0.460394 14.544102 -0.531644 1.175675 9.574787 2.225800 0.000000 -47.586100 8.337072 4.466415 -2.413441 4.985345 -1.607349 -84.849204 1.224872 -5.893002 59.993361 -3.552567 -7.628966 -26.924675 2.460900 -0.000000 -41.003600
2.548069 15.553122 -1.489185 77.029730 -75.606929 -24.740016 -7.198001 0.360931 8.468168 -0.266145 -24.791412 -119.042833 -6.574192 0.838362 16.776179 -0.249203 2.144017 9.277050 2.552100 -0.000000 -47.339200 8.347751 4.363951 -2.253066 5.042707 -1.517433 -84.889865 1.221705 -5.878668 59.979291 -3.551779 -7.600070 -26.892627 2.448700 0.000000 -41.276700
2.533172 15.553751 -1.476448 77.045621 -75.702401 -24.870536 -7.188876 0.376073 8.225310 -0.854722 -24.815642 -117.795710 -6.094888 1.242715 19.224138 0.002393 2.987957 9.073717 2.817100 -0.000000 -46.741100 8.360937 4.251016 -2.088656 5.148380 -1.425276 -84.870243 1.227839 -5.860856 59.921068 -3.546512 -7.550739 -26.852733 2.431900 -0.000000 -41.513599
2.517347 15.556846 -1.462340 77.009189 -75.825861 -24.988412 -7.176052 0.374861 7.942759 -1.462220 -24.775608 -116.518789 -5.594150 1.656040 21.834057 0.213115 3.667814 8.930370 3.005800 0.000001 -45.767601 8.376775 4.132136 -1.920966 5.285905 -1.329496 -84.787027 1.240205 -5.838029 59.820089 -3.539419 -7.494637 -26.803305 2.412599 -0.000000 -41.743600
2.500629 15.562319 -1.447306 76.937079 -75.969553 -25.101893 -7.157958 0.357210 7.624556 -2.099259 -24.677123 -115.201336 -5.088868 2.060061 24.542799 0.381612 4.173180 8.793078 3.113100 -0.000001 -44.467700 8.395592 4.011648 -1.749172 5.435988 -1.227782 -84.644474 1.255804 -5.808656 59.678232 -3.533561 -7.444871 -26.746626 2.393600 -0.000000 -41.950100
2.483159 15.570150 -1.431687 76.842563 -76.125996 -25.217790 -7.134339 0.324308 7.277937 -2.773254 -24.527577 -113.838046 -4.594981 2.439545 27.288552 0.513823 4.520209 8.601828 3.143300 -0.000000 -42.958100 8.417212 3.893327 -1.572821 5.580684 -1.117363 -84.448712 1.271589 -5.771398 59.497373 -3.531734 -7.414195 -26.682209 2.377100 0.000000 -42.131500
2.464806 15.580265 -1.415720 76.741446 -76.288611 -25.340199 -7.106660 0.278920 6.912719 -3.487774 -24.334795 -112.428701 -4.126211 2.783611 30.013306 0.620436 4.746402 8.304665 3.110000 -0.000000 -41.396601 8.441341 3.779847 -1.391225 5.704263 -0.995116 -84.208115 1.285092 -5.725136 59.278131 -3.536246 -7.412977 -26.608639 2.364600 0.000000 -42.295200
2.445566 15.592549 -1.399502 76.644475 -76.451819 -25.470197 -7.077351 0.224551 6.539824 -4.241027 -24.105124 -110.977134 -3.692846 3.085745 32.663227 0.714154 4.902684 7.867682 3.033300 -0.000000 -39.941400 8.467443 3.672956 -1.203985 5.795028 -0.858446 -83.932054 1.294479 -5.669301 59.021610 -3.548702 -7.448153 -26.524975 2.356700 0.000000 -42.436000
2.425329 15.606953 -1.383028 76.560266 -76.612111 -25.607449 -7.049401 0.164874 6.170049 -5.025465 -23.842769 -109.488323 -3.301579 3.342779 35.187550 0.807142 5.043339 7.278619 2.935200 -0.000000 -38.719600 8.494808 3.573265 -1.011267 5.846274 -0.705429 -83.628983 1.298617 -5.603735 58.727621 -3.569720 -7.523412 -26.426759 2.353000 -0.000000 -42.581000
2.403981 15.623241 -1.366231 76.494961 -76.766838 -25.748193 -7.025895 0.104249 5.814728 -5.827794 -23.551843 -107.970056 -2.956432 3.553849 37.536389 0.909132 5.217212 6.548101 2.835600 0.000000 -37.804800 8.522853 3.480521 -0.812724 5.855454 -0.535295 -83.310831 1.297439 -5.529091 58.397822 -3.599286 -7.637214 -26.315254 2.353100 0.000000 -42.701700
2.381670 15.641406 -1.348883 76.445239 -76.917522 -25.887386 -7.009429 0.044718 5.480052 -6.633302 -23.230253 -106.424169 -2.658191 3.720283 39.669905 1.026089 5.457215 5.698253 2.746200 0.000001 -37.211700 8.550263 3.393380 -0.611312 5.828355 -0.348922 -82.979095 1.291650 -5.446235 58.031161 -3.635890 -7.785167 -26.184007 2.354500 0.000001 -42.849600
2.358392 15.661242 -1.330797 76.406794 -77.065005 -26.015640 -7.002027 -0.010869 5.173335 -7.422393 -22.878600 -104.857321 -2.406730 3.843694 41.548047 1.160551 5.782379 4.765265 2.673600 -0.000000 -36.897300 8.576302 3.310211 -0.408267 5.771969 -0.148758 -82.642038 1.282714 -5.356724 57.628048 -3.677681 -7.959075 -26.031096 2.355100 0.000000 -43.036200
2.334068 15.682419 -1.311861 76.376249 -77.209888 -26.123344 -7.004869 -0.059373 4.901408 -8.174942 -22.499753 -103.279610 -2.201273 3.926154 43.135281 1.311676 6.195950 3.791893 2.619200 -0.000000 -36.774600 8.600591 3.229104 -0.204114 5.695365 0.062195 -82.309829 1.272753 -5.262385 57.190236 -3.722669 -8.147846 -25.860368 2.353000 0.000000 -43.220400
2.308871 15.704705 -1.291909 76.347754 -77.355695 -26.204298 -7.018250 -0.099633 4.666393 -8.874523 -22.093456 -101.697818 -2.039591 3.970754 44.411850 1.475385 6.683884 2.816401 2.578800 0.000001 -36.719400 8.622512 3.148109 -0.001273 5.611095 0.279700 -81.986096 1.264289 -5.165180 56.719121 -3.768105 -8.338823 -25.673557 2.346400 0.000000 -43.390100
2.283098 15.727890 -1.270773 76.310209 -77.507308 -26.250713 -7.041834 -0.132318 4.467139 -9.506382 -21.657953 -100.119517 -1.918200 3.981258 45.374534 1.645518 7.220522 1.869398 2.545900 -0.000000 -36.582800 8.641258 3.065232 0.196806 5.533760 0.499740 -81.670210 1.259774 -5.066911 56.215164 -3.811025 -8.520494 -25.468258 2.332700 -0.000000 -43.586300
2.256988 15.751643 -1.248357 76.256686 -77.668679 -26.256914 -7.074864 -0.157713 4.302261 -10.060010 -21.194337 -98.556350 -1.833421 3.961828 46.030908 1.814953 7.775604 0.977748 2.515200 -0.000000 -36.230800 8.656536 2.978861 0.388133 5.475892 0.718961 -81.364740 1.261552 -4.969357 55.680859 -3.848871 -8.681498 -25.246486 2.310500 -0.000000 -43.810400
2.230616 15.775531 -1.224815 76.199803 -77.841235 -26.235602 -7.116004 -0.175060 4.169216 -10.534810 -20.705737 -97.019746 -1.781913 3.917333 46.399040 1.976604 8.319016 0.162664 2.483500 0.000001 -35.575800 8.668983 2.888980 0.572021 5.443397 0.933340 -81.074123 1.271404 -4.874145 55.122670 -3.879623 -8.810643 -25.018072 2.280300 0.000000 -44.001900
2.204283 15.799240 -1.200112 76.137118 -78.028984 -26.188155 -7.164191 -0.186048 4.062796 -10.930946 -20.192465 -95.521848 -1.758582 3.853141 46.513696 2.124256 8.823653 -0.563307 2.448700 -0.000001 -34.579800 8.678380 2.794762 0.746469 5.445358 1.141557 -80.796751 1.290628 -4.782390 54.544552 -3.901629 -8.901733 -24.784257 2.241800 0.000000 -44.179600
